<mxfile host="app.diagrams.net" modified="2024-01-03T17:24:40.938Z" agent="Mozilla/5.0 (Windows NT 10.0; Win64; x64) AppleWebKit/537.36 (KHTML, like Gecko) Chrome/120.0.0.0 Safari/537.36 Edg/120.0.0.0" etag="0ocmML84uzxdBBcQhngW" version="22.1.16" type="github">
  <diagram name="第 1 页" id="IOd2_muNqWW3QxBtja1J">
    <mxGraphModel dx="1626" dy="751" grid="1" gridSize="10" guides="1" tooltips="1" connect="1" arrows="1" fold="1" page="1" pageScale="1" pageWidth="827" pageHeight="1169" math="0" shadow="0">
      <root>
        <mxCell id="0" />
        <mxCell id="1" parent="0" />
        <mxCell id="vuf77pYR_yUw86RYW1k2-1" value="AWS Cloud" style="points=[[0,0],[0.25,0],[0.5,0],[0.75,0],[1,0],[1,0.25],[1,0.5],[1,0.75],[1,1],[0.75,1],[0.5,1],[0.25,1],[0,1],[0,0.75],[0,0.5],[0,0.25]];outlineConnect=0;gradientColor=none;html=1;whiteSpace=wrap;fontSize=12;fontStyle=0;container=1;pointerEvents=0;collapsible=0;recursiveResize=0;shape=mxgraph.aws4.group;grIcon=mxgraph.aws4.group_aws_cloud_alt;strokeColor=#232F3E;fillColor=none;verticalAlign=top;align=left;spacingLeft=30;fontColor=#232F3E;dashed=0;" parent="1" vertex="1">
          <mxGeometry x="120" y="160" width="710" height="650" as="geometry" />
        </mxCell>
        <mxCell id="vuf77pYR_yUw86RYW1k2-2" value="Region" style="points=[[0,0],[0.25,0],[0.5,0],[0.75,0],[1,0],[1,0.25],[1,0.5],[1,0.75],[1,1],[0.75,1],[0.5,1],[0.25,1],[0,1],[0,0.75],[0,0.5],[0,0.25]];outlineConnect=0;gradientColor=none;html=1;whiteSpace=wrap;fontSize=12;fontStyle=0;container=1;pointerEvents=0;collapsible=0;recursiveResize=0;shape=mxgraph.aws4.group;grIcon=mxgraph.aws4.group_region;strokeColor=#00A4A6;fillColor=none;verticalAlign=top;align=left;spacingLeft=30;fontColor=#147EBA;dashed=1;" parent="1" vertex="1">
          <mxGeometry x="160" y="210" width="620" height="540" as="geometry" />
        </mxCell>
        <mxCell id="vuf77pYR_yUw86RYW1k2-4" value="" style="sketch=0;points=[[0,0,0],[0.25,0,0],[0.5,0,0],[0.75,0,0],[1,0,0],[0,1,0],[0.25,1,0],[0.5,1,0],[0.75,1,0],[1,1,0],[0,0.25,0],[0,0.5,0],[0,0.75,0],[1,0.25,0],[1,0.5,0],[1,0.75,0]];outlineConnect=0;fontColor=#232F3E;fillColor=#C925D1;strokeColor=#ffffff;dashed=0;verticalLabelPosition=bottom;verticalAlign=top;align=center;html=1;fontSize=12;fontStyle=0;aspect=fixed;shape=mxgraph.aws4.resourceIcon;resIcon=mxgraph.aws4.dynamodb;" parent="vuf77pYR_yUw86RYW1k2-2" vertex="1">
          <mxGeometry x="430" y="30" width="78" height="78" as="geometry" />
        </mxCell>
        <mxCell id="vuf77pYR_yUw86RYW1k2-5" value="" style="sketch=0;points=[[0,0,0],[0.25,0,0],[0.5,0,0],[0.75,0,0],[1,0,0],[0,1,0],[0.25,1,0],[0.5,1,0],[0.75,1,0],[1,1,0],[0,0.25,0],[0,0.5,0],[0,0.75,0],[1,0.25,0],[1,0.5,0],[1,0.75,0]];outlineConnect=0;fontColor=#232F3E;fillColor=#7AA116;strokeColor=#ffffff;dashed=0;verticalLabelPosition=bottom;verticalAlign=top;align=center;html=1;fontSize=12;fontStyle=0;aspect=fixed;shape=mxgraph.aws4.resourceIcon;resIcon=mxgraph.aws4.s3;" parent="vuf77pYR_yUw86RYW1k2-2" vertex="1">
          <mxGeometry x="360" y="374" width="78" height="78" as="geometry" />
        </mxCell>
        <mxCell id="vuf77pYR_yUw86RYW1k2-6" value="" style="sketch=0;points=[[0,0,0],[0.25,0,0],[0.5,0,0],[0.75,0,0],[1,0,0],[0,1,0],[0.25,1,0],[0.5,1,0],[0.75,1,0],[1,1,0],[0,0.25,0],[0,0.5,0],[0,0.75,0],[1,0.25,0],[1,0.5,0],[1,0.75,0]];outlineConnect=0;fontColor=#232F3E;fillColor=#7AA116;strokeColor=#ffffff;dashed=0;verticalLabelPosition=bottom;verticalAlign=top;align=center;html=1;fontSize=12;fontStyle=0;aspect=fixed;shape=mxgraph.aws4.resourceIcon;resIcon=mxgraph.aws4.s3;" parent="vuf77pYR_yUw86RYW1k2-2" vertex="1">
          <mxGeometry x="490" y="374" width="78" height="78" as="geometry" />
        </mxCell>
        <mxCell id="vuf77pYR_yUw86RYW1k2-7" value="" style="sketch=0;points=[[0,0,0],[0.25,0,0],[0.5,0,0],[0.75,0,0],[1,0,0],[0,1,0],[0.25,1,0],[0.5,1,0],[0.75,1,0],[1,1,0],[0,0.25,0],[0,0.5,0],[0,0.75,0],[1,0.25,0],[1,0.5,0],[1,0.75,0]];outlineConnect=0;fontColor=#232F3E;fillColor=#E7157B;strokeColor=#ffffff;dashed=0;verticalLabelPosition=bottom;verticalAlign=top;align=center;html=1;fontSize=12;fontStyle=0;aspect=fixed;shape=mxgraph.aws4.resourceIcon;resIcon=mxgraph.aws4.sqs;" parent="vuf77pYR_yUw86RYW1k2-2" vertex="1">
          <mxGeometry x="390" y="130" width="78" height="78" as="geometry" />
        </mxCell>
        <mxCell id="vuf77pYR_yUw86RYW1k2-8" value="" style="sketch=0;points=[[0,0,0],[0.25,0,0],[0.5,0,0],[0.75,0,0],[1,0,0],[0,1,0],[0.25,1,0],[0.5,1,0],[0.75,1,0],[1,1,0],[0,0.25,0],[0,0.5,0],[0,0.75,0],[1,0.25,0],[1,0.5,0],[1,0.75,0]];outlineConnect=0;fontColor=#232F3E;fillColor=#E7157B;strokeColor=#ffffff;dashed=0;verticalLabelPosition=bottom;verticalAlign=top;align=center;html=1;fontSize=12;fontStyle=0;aspect=fixed;shape=mxgraph.aws4.resourceIcon;resIcon=mxgraph.aws4.sns;" parent="vuf77pYR_yUw86RYW1k2-2" vertex="1">
          <mxGeometry x="390" y="210" width="78" height="78" as="geometry" />
        </mxCell>
        <mxCell id="vuf77pYR_yUw86RYW1k2-15" value="DynamoDB" style="text;strokeColor=none;align=center;fillColor=none;html=1;verticalAlign=middle;whiteSpace=wrap;rounded=0;" parent="vuf77pYR_yUw86RYW1k2-2" vertex="1">
          <mxGeometry x="439" y="100" width="60" height="30" as="geometry" />
        </mxCell>
        <mxCell id="vuf77pYR_yUw86RYW1k2-16" value="SQS" style="text;strokeColor=none;align=center;fillColor=none;html=1;verticalAlign=middle;whiteSpace=wrap;rounded=0;" parent="vuf77pYR_yUw86RYW1k2-2" vertex="1">
          <mxGeometry x="399" y="190" width="60" height="30" as="geometry" />
        </mxCell>
        <mxCell id="vuf77pYR_yUw86RYW1k2-26" style="edgeStyle=orthogonalEdgeStyle;rounded=0;orthogonalLoop=1;jettySize=auto;html=1;" parent="vuf77pYR_yUw86RYW1k2-2" target="vuf77pYR_yUw86RYW1k2-6" edge="1">
          <mxGeometry relative="1" as="geometry">
            <mxPoint x="399" y="330" as="sourcePoint" />
            <Array as="points">
              <mxPoint x="399" y="330" />
              <mxPoint x="479" y="330" />
              <mxPoint x="479" y="351" />
              <mxPoint x="529" y="351" />
            </Array>
          </mxGeometry>
        </mxCell>
        <mxCell id="vuf77pYR_yUw86RYW1k2-17" value="SNS" style="text;strokeColor=none;align=center;fillColor=none;html=1;verticalAlign=middle;whiteSpace=wrap;rounded=0;" parent="vuf77pYR_yUw86RYW1k2-2" vertex="1">
          <mxGeometry x="399" y="270" width="60" height="30" as="geometry" />
        </mxCell>
        <mxCell id="vuf77pYR_yUw86RYW1k2-18" value="Processing Bucket" style="text;strokeColor=none;align=center;fillColor=none;html=1;verticalAlign=middle;whiteSpace=wrap;rounded=0;" parent="vuf77pYR_yUw86RYW1k2-2" vertex="1">
          <mxGeometry x="370" y="452" width="60" height="30" as="geometry" />
        </mxCell>
        <mxCell id="vuf77pYR_yUw86RYW1k2-19" value="Uploading Bucket" style="text;strokeColor=none;align=center;fillColor=none;html=1;verticalAlign=middle;whiteSpace=wrap;rounded=0;" parent="vuf77pYR_yUw86RYW1k2-2" vertex="1">
          <mxGeometry x="499" y="452" width="60" height="30" as="geometry" />
        </mxCell>
        <mxCell id="vuf77pYR_yUw86RYW1k2-22" value="" style="edgeStyle=orthogonalEdgeStyle;html=1;endArrow=openThin;elbow=vertical;startArrow=none;endFill=0;strokeColor=#545B64;rounded=0;" parent="vuf77pYR_yUw86RYW1k2-2" target="vuf77pYR_yUw86RYW1k2-4" edge="1">
          <mxGeometry width="100" relative="1" as="geometry">
            <mxPoint x="128.5" y="275.5" as="sourcePoint" />
            <mxPoint x="399" y="90" as="targetPoint" />
            <Array as="points">
              <mxPoint x="219" y="276" />
              <mxPoint x="219" y="80" />
              <mxPoint x="399" y="80" />
              <mxPoint x="399" y="69" />
            </Array>
          </mxGeometry>
        </mxCell>
        <mxCell id="vuf77pYR_yUw86RYW1k2-23" value="" style="edgeStyle=orthogonalEdgeStyle;html=1;endArrow=open;elbow=vertical;startArrow=none;endFill=0;strokeColor=#545B64;rounded=0;exitX=1;exitY=0.75;exitDx=0;exitDy=0;exitPerimeter=0;" parent="vuf77pYR_yUw86RYW1k2-2" target="vuf77pYR_yUw86RYW1k2-7" edge="1">
          <mxGeometry width="100" relative="1" as="geometry">
            <mxPoint x="150" y="286.35" as="sourcePoint" />
            <mxPoint x="416.5" y="253.60000000000002" as="targetPoint" />
            <Array as="points">
              <mxPoint x="340" y="286" />
              <mxPoint x="340" y="190" />
            </Array>
          </mxGeometry>
        </mxCell>
        <mxCell id="vuf77pYR_yUw86RYW1k2-27" value="" style="sketch=0;points=[[0,0,0],[0.25,0,0],[0.5,0,0],[0.75,0,0],[1,0,0],[0,1,0],[0.25,1,0],[0.5,1,0],[0.75,1,0],[1,1,0],[0,0.25,0],[0,0.5,0],[0,0.75,0],[1,0.25,0],[1,0.5,0],[1,0.75,0]];outlineConnect=0;fontColor=#232F3E;fillColor=#7AA116;strokeColor=#ffffff;dashed=0;verticalLabelPosition=bottom;verticalAlign=top;align=center;html=1;fontSize=12;fontStyle=0;aspect=fixed;shape=mxgraph.aws4.resourceIcon;resIcon=mxgraph.aws4.s3;" parent="vuf77pYR_yUw86RYW1k2-2" vertex="1">
          <mxGeometry x="540" y="30" width="78" height="78" as="geometry" />
        </mxCell>
        <mxCell id="vuf77pYR_yUw86RYW1k2-28" value="" style="edgeStyle=orthogonalEdgeStyle;html=1;endArrow=block;elbow=vertical;startArrow=none;endFill=1;strokeColor=#545B64;rounded=0;" parent="vuf77pYR_yUw86RYW1k2-2" edge="1">
          <mxGeometry width="100" relative="1" as="geometry">
            <mxPoint x="488" y="69.5" as="sourcePoint" />
            <mxPoint x="567" y="67.5" as="targetPoint" />
            <Array as="points">
              <mxPoint x="488" y="70.5" />
              <mxPoint x="568" y="70.5" />
            </Array>
          </mxGeometry>
        </mxCell>
        <mxCell id="vuf77pYR_yUw86RYW1k2-29" value="Backup" style="text;strokeColor=none;align=center;fillColor=none;html=1;verticalAlign=middle;whiteSpace=wrap;rounded=0;" parent="vuf77pYR_yUw86RYW1k2-2" vertex="1">
          <mxGeometry x="549" y="108" width="60" height="30" as="geometry" />
        </mxCell>
        <mxCell id="vuf77pYR_yUw86RYW1k2-3" value="VPC" style="points=[[0,0],[0.25,0],[0.5,0],[0.75,0],[1,0],[1,0.25],[1,0.5],[1,0.75],[1,1],[0.75,1],[0.5,1],[0.25,1],[0,1],[0,0.75],[0,0.5],[0,0.25]];outlineConnect=0;gradientColor=none;html=1;whiteSpace=wrap;fontSize=12;fontStyle=0;container=1;pointerEvents=0;collapsible=0;recursiveResize=0;shape=mxgraph.aws4.group;grIcon=mxgraph.aws4.group_vpc2;strokeColor=#8C4FFF;fillColor=none;verticalAlign=top;align=left;spacingLeft=30;fontColor=#AAB7B8;dashed=0;" parent="1" vertex="1">
          <mxGeometry x="220" y="280" width="240" height="400" as="geometry" />
        </mxCell>
        <mxCell id="vuf77pYR_yUw86RYW1k2-10" value="Security group" style="fillColor=none;strokeColor=#DD3522;verticalAlign=top;fontStyle=0;fontColor=#DD3522;whiteSpace=wrap;html=1;" parent="vuf77pYR_yUw86RYW1k2-3" vertex="1">
          <mxGeometry x="20" y="80" width="130" height="260" as="geometry" />
        </mxCell>
        <mxCell id="vuf77pYR_yUw86RYW1k2-11" value="Availability Zone" style="fillColor=none;strokeColor=#147EBA;dashed=1;verticalAlign=top;fontStyle=0;fontColor=#147EBA;whiteSpace=wrap;html=1;" parent="vuf77pYR_yUw86RYW1k2-3" vertex="1">
          <mxGeometry x="55" y="30" width="165" height="80" as="geometry" />
        </mxCell>
        <mxCell id="vuf77pYR_yUw86RYW1k2-12" value="Availability Zone" style="fillColor=none;strokeColor=#147EBA;dashed=1;verticalAlign=top;fontStyle=0;fontColor=#147EBA;whiteSpace=wrap;html=1;" parent="vuf77pYR_yUw86RYW1k2-3" vertex="1">
          <mxGeometry x="70" y="150" width="165" height="80" as="geometry" />
        </mxCell>
        <mxCell id="vuf77pYR_yUw86RYW1k2-13" value="Availability Zone" style="fillColor=none;strokeColor=#147EBA;dashed=1;verticalAlign=top;fontStyle=0;fontColor=#147EBA;whiteSpace=wrap;html=1;" parent="vuf77pYR_yUw86RYW1k2-3" vertex="1">
          <mxGeometry x="55" y="280" width="165" height="80" as="geometry" />
        </mxCell>
        <mxCell id="vuf77pYR_yUw86RYW1k2-20" value="EC2 AutoScaling Group" style="text;strokeColor=none;align=center;fillColor=none;html=1;verticalAlign=middle;whiteSpace=wrap;rounded=0;" parent="vuf77pYR_yUw86RYW1k2-3" vertex="1">
          <mxGeometry x="26.25" y="250" width="65.5" height="30" as="geometry" />
        </mxCell>
        <mxCell id="JDWU02gEc2jQBUdCcdpT-1" value="" style="sketch=0;points=[[0,0,0],[0.25,0,0],[0.5,0,0],[0.75,0,0],[1,0,0],[0,1,0],[0.25,1,0],[0.5,1,0],[0.75,1,0],[1,1,0],[0,0.25,0],[0,0.5,0],[0,0.75,0],[1,0.25,0],[1,0.5,0],[1,0.75,0]];outlineConnect=0;fontColor=#232F3E;fillColor=#ED7100;strokeColor=#ffffff;dashed=0;verticalLabelPosition=bottom;verticalAlign=top;align=center;html=1;fontSize=12;fontStyle=0;aspect=fixed;shape=mxgraph.aws4.resourceIcon;resIcon=mxgraph.aws4.auto_scaling2;" vertex="1" parent="vuf77pYR_yUw86RYW1k2-3">
          <mxGeometry x="20" y="161" width="78" height="78" as="geometry" />
        </mxCell>
        <mxCell id="vuf77pYR_yUw86RYW1k2-25" value="" style="edgeStyle=orthogonalEdgeStyle;html=1;endArrow=block;elbow=vertical;startArrow=none;endFill=1;strokeColor=#545B64;rounded=0;exitX=1;exitY=0.25;exitDx=0;exitDy=0;" parent="1" source="vuf77pYR_yUw86RYW1k2-20" target="vuf77pYR_yUw86RYW1k2-5" edge="1">
          <mxGeometry width="100" relative="1" as="geometry">
            <mxPoint x="370" y="540" as="sourcePoint" />
            <mxPoint x="470" y="540" as="targetPoint" />
            <Array as="points">
              <mxPoint x="315" y="540" />
              <mxPoint x="392" y="540" />
              <mxPoint x="392" y="541" />
              <mxPoint x="559" y="541" />
            </Array>
          </mxGeometry>
        </mxCell>
      </root>
    </mxGraphModel>
  </diagram>
</mxfile>
